<?xml version="1.0" encoding="UTF-8"?>
<svg width="181px" height="181px" viewBox="0 0 181 181" version="1.1" xmlns="http://www.w3.org/2000/svg" xmlns:xlink="http://www.w3.org/1999/xlink">
    <!-- Generator: Sketch 53.1 (72631) - https://sketchapp.com -->
    <title>fish icon</title>
    <desc>Created with Sketch.</desc>
    <g id="Page-1" stroke="none" stroke-width="1" fill="none" fill-rule="evenodd">
        <g id="fish-icon" transform="translate(1.000000, 1.000000)">
            <circle id="Oval-Copy-4" stroke="#000000" fill="#FFFFFF" cx="89.5" cy="89.5" r="89.5"></circle>
            <g id="Tuna-Fish" transform="translate(20.000000, 30.000000)" fill="#000000">
                <path d="M135.977898,1.87166164 C131.259723,-2.87360273 110.671323,2.51874314 101.663898,5.75415066 C104.022986,14.8132917 109.813473,22.5782698 117.963048,27.3235342 C119.035361,27.9706157 119.464286,29.2647787 118.820898,30.3432478 C118.177511,31.421717 116.890736,31.8531047 115.818423,31.2060232 C106.596536,26.0293711 100.162661,17.6173116 97.5891107,7.47970134 C86.0081358,12.2249657 71.2102234,20.6370253 59.8437109,34.6571245 C47.1904235,40.0494704 29.8189611,41.5593273 25.1007861,52.9911005 C24.6718611,54.0695697 25.1007861,55.5794265 26.3875611,55.7951204 C32.1780485,57.5206711 39.4697735,66.1484244 41.1854735,73.266321 C38.1829985,80.1685237 32.6069735,90.7375216 30.4623486,97.6397243 C19.3102986,96.3455613 2.58222369,95.6984798 0.866523694,102.384989 C-2.13595129,114.679537 23.3850861,140.778491 36.0383735,137.758778 C43.115636,136.033227 42.0433235,117.699251 40.971011,107.993028 C48.4771985,105.620396 59.4147859,99.7966627 67.1354359,96.3455613 C72.9259233,98.7181935 77.0007108,104.757621 85.1502858,102.169295 C93.2998607,99.7966627 93.2998607,93.3258477 97.1601857,83.1882374 C123.110148,66.1484244 132.546498,36.1669814 135.120048,25.8136773 C137.693598,16.1074547 138.765911,4.89137532 135.977898,1.87166164 Z M111.314711,48.0301423 C108.097773,53.8538759 102.950673,60.7560786 101.234973,62.4816293 C97.8035732,65.9327306 93.9432482,64.4228738 90.2973858,60.9717724 C86.2225983,56.8735895 85.5792108,53.2067944 88.7961483,49.9713868 C90.5118483,48.2458361 97.3746482,43.0691841 103.165136,39.8337766 C104.237448,39.1866951 105.524223,39.6180828 106.167611,40.6965519 C106.810998,41.7750211 106.382073,43.0691841 105.309761,43.7162656 C99.7337357,46.7359793 93.2998607,51.6969375 92.0130858,53.2067944 C91.3696983,53.8538759 90.2973858,54.932345 93.5143232,57.9520587 C94.8010982,59.2462217 95.6589482,59.8933032 96.5167982,60.1089971 C96.9457232,60.3246909 97.5891107,60.3246909 98.2324982,59.4619156 C99.5192732,58.1677526 104.666373,51.6969375 107.668848,46.0888978 C108.312236,45.0104286 109.599011,44.579041 110.671323,45.2261225 C111.529173,45.873204 111.958098,47.167367 111.314711,48.0301423 Z M123.324611,16.1074547 C122.466761,16.9702301 121.179986,16.9702301 120.322136,16.1074547 C119.464286,15.2446794 119.464286,13.9505164 120.322136,13.0877411 C121.179986,12.2249657 122.466761,12.2249657 123.324611,13.0877411 C124.182461,13.9505164 123.967998,15.2446794 123.324611,16.1074547 Z" id="Shape" fill-rule="nonzero"></path>
            </g>
        </g>
    </g>
</svg>