<?xml version="1.0" encoding="UTF-8"?>
<svg width="181px" height="181px" viewBox="0 0 181 181" version="1.1" xmlns="http://www.w3.org/2000/svg" xmlns:xlink="http://www.w3.org/1999/xlink">
    <!-- Generator: Sketch 53.1 (72631) - https://sketchapp.com -->
    <title>Whale icon</title>
    <desc>Created with Sketch.</desc>
    <g id="Page-1" stroke="none" stroke-width="1" fill="none" fill-rule="evenodd">
        <g id="Whale-icon" transform="translate(1.000000, 1.000000)">
            <g>
                <circle id="Oval-Copy" stroke="#000000" fill="#FFFFFF" cx="89.5" cy="89.5" r="89.5"></circle>
                <g id="Whale" transform="translate(29.000000, 41.000000)" fill="#000000">
                    <path d="M118.087015,23.0576003 C126.3728,18.6162681 128.595815,8.52233131 129,2.86972672 C129,2.06221178 128.797908,1.45657557 127.989538,1.0528181 C127.383262,0.649060632 126.574892,0.649060632 125.766523,1.0528181 C120.310031,4.28287787 110.6096,9.73360372 107.174031,9.73360372 C103.738461,9.73360372 94.0380304,4.4847566 88.581538,1.0528181 C87.9752611,0.649060632 87.1668919,0.649060632 86.5606149,1.0528181 C85.954338,1.45657557 85.5501534,2.26409052 85.5501534,2.86972672 C86.3585226,11.5505123 91.2087381,21.8463278 99.6966151,25.0763876 C100.504984,25.2782663 100.909169,26.28766 100.909169,27.095175 C99.8987074,39.8135353 99.8987074,58.7901364 86.9647995,58.7901364 L86.9647995,58.7901364 C76.2539071,58.7901364 74.232984,53.9450468 72.0099686,48.4943209 C55.0342146,5.49415028 1.88393709,23.259479 0.0651062967,51.9262594 C-0.541170633,62.8277111 3.09649094,73.1235266 10.5739064,81.4005548 C17.4450449,79.3817674 22.699445,73.9310416 24.5182758,66.8652858 C24.7203681,65.8558922 25.932922,65.0483772 26.9433835,65.4521347 C27.9538451,65.6540134 28.7622143,66.8652858 28.3580297,67.8746795 C26.3371066,75.5460715 20.8806142,81.6024335 13.6052911,84.6306145 C26.9433835,96.7433387 53.4174761,97.5508536 68.978584,96.3395812 C92.6233842,94.5226726 131.020923,65.250256 117.076554,25.4801451 C116.874461,24.4707514 117.278646,23.4613577 118.087015,23.0576003 Z M17.0408603,67.0671646 C16.2324911,67.8746795 15.0199372,67.8746795 14.211568,67.0671646 C13.4031987,66.2596496 13.4031987,65.0483772 14.211568,64.2408623 C15.0199372,63.4333473 16.2324911,63.4333473 17.0408603,64.2408623 C17.8492296,65.0483772 18.0513219,66.2596496 17.0408603,67.0671646 Z" id="Shape" fill-rule="nonzero"></path>
                </g>
            </g>
        </g>
    </g>
</svg>