<?xml version="1.0" encoding="UTF-8"?>
<svg width="181px" height="181px" viewBox="0 0 181 181" version="1.1" xmlns="http://www.w3.org/2000/svg" xmlns:xlink="http://www.w3.org/1999/xlink">
    <!-- Generator: Sketch 53.1 (72631) - https://sketchapp.com -->
    <title>thermometer icon</title>
    <desc>Created with Sketch.</desc>
    <g id="Page-1" stroke="none" stroke-width="1" fill="none" fill-rule="evenodd">
        <g id="thermometer-icon" transform="translate(1.000000, 1.000000)">
            <circle id="Oval-Copy-3" stroke="#000000" fill="#FFFFFF" cx="89.5" cy="89.5" r="89.5"></circle>
            <g id="Thermometer" transform="translate(40.275000, 0.000000)" fill="#000000">
                <path d="M53.7,116.98545 L53.7,67.125 C53.7,64.66375 51.68625,62.65 49.225,62.65 C46.76375,62.65 44.75,64.66375 44.75,67.125 L44.75,116.98545 C37.053,118.99025 31.325,125.93545 31.325,134.25 C31.325,144.12185 39.3442,152.15 49.225,152.15 C59.1058,152.15 67.125,144.12185 67.125,134.25 C67.125,125.93545 61.397,118.99025 53.7,116.98545 Z M80.55,102.55805 L80.55,31.325 C80.55,14.0515 66.4985,0 49.225,0 C31.9515,0 17.9,14.0515 17.9,31.325 L17.9,102.55805 C9.32549271,110.87332 4.48262355,122.30572 4.475,134.25 C4.475,158.92515 24.54985,179 49.225,179 C73.90015,179 93.975,158.92515 93.975,134.25 C93.975,121.8095 88.8019,110.63095 80.55,102.55805 Z M49.225,161.1 C34.4217,161.1 22.375,149.0533 22.375,134.25 C22.4047167,124.700687 27.5207869,115.890814 35.8,111.13215 L35.8,31.325 C35.8,23.92335 41.82335,17.9 49.225,17.9 C56.62665,17.9 62.65,23.92335 62.65,31.325 L62.65,111.13215 C70.9292131,115.890814 76.0452833,124.700687 76.075,134.25 C76.075,149.0533 64.0283,161.1 49.225,161.1 Z" id="Shape" fill-rule="nonzero"></path>
            </g>
            <g id="Thermometer" transform="translate(40.275000, 0.000000)" fill="#000000">
                <path d="M53.7,116.98545 L53.7,67.125 C53.7,64.66375 51.68625,62.65 49.225,62.65 C46.76375,62.65 44.75,64.66375 44.75,67.125 L44.75,116.98545 C37.053,118.99025 31.325,125.93545 31.325,134.25 C31.325,144.12185 39.3442,152.15 49.225,152.15 C59.1058,152.15 67.125,144.12185 67.125,134.25 C67.125,125.93545 61.397,118.99025 53.7,116.98545 Z M80.55,102.55805 L80.55,31.325 C80.55,14.0515 66.4985,0 49.225,0 C31.9515,0 17.9,14.0515 17.9,31.325 L17.9,102.55805 C9.32549271,110.87332 4.48262355,122.30572 4.475,134.25 C4.475,158.92515 24.54985,179 49.225,179 C73.90015,179 93.975,158.92515 93.975,134.25 C93.975,121.8095 88.8019,110.63095 80.55,102.55805 Z M49.225,161.1 C34.4217,161.1 22.375,149.0533 22.375,134.25 C22.4047167,124.700687 27.5207869,115.890814 35.8,111.13215 L35.8,31.325 C35.8,23.92335 41.82335,17.9 49.225,17.9 C56.62665,17.9 62.65,23.92335 62.65,31.325 L62.65,111.13215 C70.9292131,115.890814 76.0452833,124.700687 76.075,134.25 C76.075,149.0533 64.0283,161.1 49.225,161.1 Z" id="Shape" fill-rule="nonzero"></path>
            </g>
        </g>
    </g>
</svg>